<svg width="376" height="82" viewBox="0 0 376 82" fill="none" xmlns="http://www.w3.org/2000/svg">
<path d="M103 23C103 20.7909 104.791 19 107 19H130C139.941 19 148 27.0589 148 37V46C148 55.9411 139.941 64 130 64H107C104.791 64 103 62.2091 103 60V23Z" fill="#1E2019"/>
<path d="M107.095 40.273L118.103 33.8429C118.695 33.4971 119.439 33.9241 119.439 34.6096C119.439 34.9274 119.269 35.2209 118.994 35.3794L116.929 36.567C112.803 38.9404 112.951 44.943 117.189 47.11L118.946 48.0085C119.249 48.1631 119.439 48.4739 119.439 48.8134C119.439 49.4961 118.711 49.9324 118.109 49.6108L107.161 43.7642C105.781 43.0271 105.744 41.0622 107.095 40.273Z" fill="#F3A847" stroke="#F3A847"/>
<path d="M143.102 43.1105L132.093 49.5407C131.501 49.8864 130.758 49.4595 130.758 48.7739C130.758 48.4561 130.927 48.1626 131.203 48.0042L133.267 46.8165C137.393 44.4431 137.245 38.4405 133.007 36.2735L131.25 35.375C130.948 35.2205 130.758 34.9096 130.758 34.5701C130.758 33.8875 131.485 33.4511 132.087 33.7727L143.035 39.6194C144.415 40.3564 144.453 42.3214 143.102 43.1105Z" fill="#F3A847" stroke="#F3A847"/>
<path d="M129.019 36.4216L123.283 48.5241C123.039 49.0378 122.426 49.2564 121.912 49.0124C121.399 48.7684 121.18 48.1542 121.423 47.6406L127.16 35.5381C127.403 35.0244 128.017 34.8058 128.53 35.0498C129.043 35.2938 129.262 35.908 129.019 36.4216Z" fill="#F3A847" stroke="#F3A847"/>
<path d="M245.5 60.5312C245.5 61.1146 245.385 61.6562 245.156 62.1562C244.948 62.6562 244.656 63.0938 244.281 63.4688C243.927 63.8229 243.5 64.1042 243 64.3125C242.5 64.5208 241.969 64.625 241.406 64.625C240.906 64.625 240.396 64.5312 239.875 64.3438C239.375 64.1562 238.927 63.8542 238.531 63.4375L208.844 32.4375V64H200.719V22.6562C200.719 21.8229 200.948 21.0729 201.406 20.4062C201.885 19.7188 202.49 19.2083 203.219 18.875C203.99 18.5625 204.781 18.4896 205.594 18.6562C206.406 18.8021 207.104 19.1771 207.688 19.7812L237.375 50.75V19.1875H245.5V60.5312ZM302 45.875C302 48.6042 301.531 51.1146 300.594 53.4062C299.656 55.6979 298.354 57.6771 296.688 59.3438C295.021 61.0104 293.042 62.3125 290.75 63.25C288.479 64.1667 286 64.625 283.312 64.625H272.312C269.625 64.625 267.135 64.1667 264.844 63.25C262.552 62.3125 260.573 61.0104 258.906 59.3438C257.24 57.6771 255.927 55.6979 254.969 53.4062C254.031 51.1146 253.562 48.6042 253.562 45.875V37.3125C253.562 34.6042 254.031 32.1042 254.969 29.8125C255.927 27.5 257.24 25.5208 258.906 23.875C260.573 22.2083 262.552 20.9062 264.844 19.9688C267.135 19.0312 269.625 18.5625 272.312 18.5625H283.312C286 18.5625 288.479 19.0312 290.75 19.9688C293.042 20.9062 295.021 22.2083 296.688 23.875C298.354 25.5208 299.656 27.5 300.594 29.8125C301.531 32.1042 302 34.6042 302 37.3125V45.875ZM293.875 37.3125C293.875 35.7083 293.615 34.2604 293.094 32.9688C292.594 31.6562 291.875 30.5417 290.938 29.625C290.021 28.6875 288.906 27.9688 287.594 27.4688C286.302 26.9479 284.875 26.6875 283.312 26.6875H272.312C270.729 26.6875 269.281 26.9479 267.969 27.4688C266.677 27.9688 265.562 28.6875 264.625 29.625C263.688 30.5417 262.958 31.6562 262.438 32.9688C261.938 34.2604 261.688 35.7083 261.688 37.3125V45.875C261.688 47.4792 261.938 48.9375 262.438 50.25C262.958 51.5417 263.688 52.6562 264.625 53.5938C265.562 54.5104 266.677 55.2292 267.969 55.75C269.281 56.25 270.729 56.5 272.312 56.5H283.25C284.833 56.5 286.271 56.25 287.562 55.75C288.875 55.2292 290 54.5104 290.938 53.5938C291.875 52.6562 292.594 51.5417 293.094 50.25C293.615 48.9375 293.875 47.4792 293.875 45.875V37.3125ZM318.219 64H310.094V19.1875H318.219V64ZM372.5 34.25C372.5 36.1042 372.271 37.7604 371.812 39.2188C371.354 40.6771 370.729 41.9688 369.938 43.0938C369.167 44.1979 368.271 45.1458 367.25 45.9375C366.229 46.7292 365.156 47.3854 364.031 47.9062C362.927 48.4062 361.802 48.7708 360.656 49C359.531 49.2292 358.469 49.3438 357.469 49.3438L374.438 64H361.875L344.938 49.3438H339.094V41.2188H357.469C358.49 41.1354 359.417 40.9271 360.25 40.5938C361.104 40.2396 361.833 39.7708 362.438 39.1875C363.062 38.6042 363.542 37.9062 363.875 37.0938C364.208 36.2604 364.375 35.3125 364.375 34.25V29.125C364.375 28.6667 364.312 28.3229 364.188 28.0938C364.083 27.8438 363.938 27.6667 363.75 27.5625C363.583 27.4375 363.396 27.3646 363.188 27.3438C363 27.3229 362.823 27.3125 362.656 27.3125H335.844V64H327.719V23.2812C327.719 22.7188 327.823 22.1875 328.031 21.6875C328.24 21.1875 328.521 20.75 328.875 20.375C329.25 20 329.688 19.7083 330.188 19.5C330.688 19.2917 331.229 19.1875 331.812 19.1875H362.656C364.469 19.1875 366 19.5208 367.25 20.1875C368.5 20.8333 369.51 21.6562 370.281 22.6562C371.073 23.6354 371.635 24.6979 371.969 25.8438C372.323 26.9896 372.5 28.0625 372.5 29.0625V34.25Z" fill="#1E2019"/>
<path d="M44.8438 64H15.5312C14.7812 64 13.9688 63.9167 13.0938 63.75C12.2396 63.5625 11.3854 63.2812 10.5312 62.9062C9.69792 62.5312 8.89583 62.0521 8.125 61.4688C7.35417 60.8646 6.66667 60.1458 6.0625 59.3125C5.47917 58.4583 5.01042 57.4792 4.65625 56.375C4.30208 55.25 4.125 53.9896 4.125 52.5938V30.5938C4.125 29.8438 4.20833 29.0417 4.375 28.1875C4.5625 27.3125 4.84375 26.4583 5.21875 25.625C5.59375 24.7708 6.08333 23.9583 6.6875 23.1875C7.29167 22.4167 8.01042 21.7396 8.84375 21.1562C9.69792 20.5521 10.6771 20.0729 11.7812 19.7188C12.8854 19.3646 14.1354 19.1875 15.5312 19.1875H44.8438V27.3125H15.5312C14.4688 27.3125 13.6562 27.5938 13.0938 28.1562C12.5312 28.7188 12.25 29.5521 12.25 30.6562V52.5938C12.25 53.6354 12.5312 54.4479 13.0938 55.0312C13.6771 55.5938 14.4896 55.875 15.5312 55.875H44.8438V64ZM98.875 45.875C98.875 48.6042 98.4062 51.1146 97.4688 53.4062C96.5312 55.6979 95.2292 57.6771 93.5625 59.3438C91.8958 61.0104 89.9167 62.3125 87.625 63.25C85.3542 64.1667 82.875 64.625 80.1875 64.625H69.1875C66.5 64.625 64.0104 64.1667 61.7188 63.25C59.4271 62.3125 57.4479 61.0104 55.7812 59.3438C54.1146 57.6771 52.8021 55.6979 51.8438 53.4062C50.9062 51.1146 50.4375 48.6042 50.4375 45.875V37.3125C50.4375 34.6042 50.9062 32.1042 51.8438 29.8125C52.8021 27.5 54.1146 25.5208 55.7812 23.875C57.4479 22.2083 59.4271 20.9062 61.7188 19.9688C64.0104 19.0312 66.5 18.5625 69.1875 18.5625H80.1875C82.875 18.5625 85.3542 19.0312 87.625 19.9688C89.9167 20.9062 91.8958 22.2083 93.5625 23.875C95.2292 25.5208 96.5312 27.5 97.4688 29.8125C98.4062 32.1042 98.875 34.6042 98.875 37.3125V45.875ZM90.75 37.3125C90.75 35.7083 90.4896 34.2604 89.9688 32.9688C89.4688 31.6562 88.75 30.5417 87.8125 29.625C86.8958 28.6875 85.7812 27.9688 84.4688 27.4688C83.1771 26.9479 81.75 26.6875 80.1875 26.6875H69.1875C67.6042 26.6875 66.1562 26.9479 64.8438 27.4688C63.5521 27.9688 62.4375 28.6875 61.5 29.625C60.5625 30.5417 59.8333 31.6562 59.3125 32.9688C58.8125 34.2604 58.5625 35.7083 58.5625 37.3125V45.875C58.5625 47.4792 58.8125 48.9375 59.3125 50.25C59.8333 51.5417 60.5625 52.6562 61.5 53.5938C62.4375 54.5104 63.5521 55.2292 64.8438 55.75C66.1562 56.25 67.6042 56.5 69.1875 56.5H80.125C81.7083 56.5 83.1458 56.25 84.4375 55.75C85.75 55.2292 86.875 54.5104 87.8125 53.5938C88.75 52.6562 89.4688 51.5417 89.9688 50.25C90.4896 48.9375 90.75 47.4792 90.75 45.875V37.3125Z" fill="#1E2019"/>
<path d="M188.562 45.6875H162.906V37.5H188.562V45.6875ZM192.219 64H162.906C161.781 64 160.552 63.8021 159.219 63.4062C157.885 63.0104 156.646 62.3646 155.5 61.4688C154.375 60.5521 153.427 59.375 152.656 57.9375C151.906 56.4792 151.531 54.6979 151.531 52.5938V23.2812C151.531 22.7188 151.635 22.1875 151.844 21.6875C152.052 21.1875 152.333 20.75 152.688 20.375C153.062 20 153.5 19.7083 154 19.5C154.5 19.2917 155.042 19.1875 155.625 19.1875H192.219V27.3125H159.656V52.5938C159.656 53.6562 159.938 54.4688 160.5 55.0312C161.062 55.5938 161.885 55.875 162.969 55.875H192.219V64Z" fill="#1E2019"/>
</svg>
